<mxfile host="Electron" modified="2024-04-26T19:48:41.330Z" agent="Mozilla/5.0 (Windows NT 10.0; Win64; x64) AppleWebKit/537.36 (KHTML, like Gecko) draw.io/24.2.5 Chrome/120.0.6099.109 Electron/28.1.0 Safari/537.36" etag="wwzokJOzZVvdGWjzk5pR" version="24.2.5" type="device">
  <diagram name="Page-1" id="yQnq92OoVRFd8ZbAOTAp">
    <mxGraphModel dx="3417" dy="2684" grid="1" gridSize="10" guides="1" tooltips="1" connect="1" arrows="1" fold="1" page="1" pageScale="1" pageWidth="827" pageHeight="1169" math="0" shadow="0">
      <root>
        <mxCell id="0" />
        <mxCell id="1" parent="0" />
        <mxCell id="ysAVt2BfScrVBr1sPLy7-63" value="" style="rounded=1;whiteSpace=wrap;html=1;fillColor=none;fontColor=#ffffff;strokeColor=#3A5431;strokeWidth=6;" vertex="1" parent="1">
          <mxGeometry x="810" y="-350" width="660" height="340" as="geometry" />
        </mxCell>
        <mxCell id="ysAVt2BfScrVBr1sPLy7-2" value="" style="rounded=1;whiteSpace=wrap;html=1;fillColor=none;fontColor=#000000;strokeColor=#C73500;strokeWidth=5;" vertex="1" parent="1">
          <mxGeometry x="10" y="50" width="1280" height="600" as="geometry" />
        </mxCell>
        <mxCell id="ysAVt2BfScrVBr1sPLy7-3" value="&lt;font style=&quot;font-size: 28px;&quot;&gt;SEARCH ENGINE&lt;/font&gt;" style="text;html=1;align=center;verticalAlign=middle;whiteSpace=wrap;rounded=0;" vertex="1" parent="1">
          <mxGeometry x="100" y="595" width="280" height="30" as="geometry" />
        </mxCell>
        <mxCell id="ysAVt2BfScrVBr1sPLy7-84" style="edgeStyle=orthogonalEdgeStyle;rounded=0;orthogonalLoop=1;jettySize=auto;html=1;entryX=0;entryY=0.5;entryDx=0;entryDy=0;" edge="1" parent="1" source="ysAVt2BfScrVBr1sPLy7-4" target="ysAVt2BfScrVBr1sPLy7-5">
          <mxGeometry relative="1" as="geometry" />
        </mxCell>
        <mxCell id="ysAVt2BfScrVBr1sPLy7-4" value="&lt;div&gt;Creation of the research context&lt;/div&gt;&lt;div&gt;ContexteRecherche.java&lt;/div&gt;" style="rounded=1;whiteSpace=wrap;html=1;fillColor=none;" vertex="1" parent="1">
          <mxGeometry x="-200" y="235" width="180" height="110" as="geometry" />
        </mxCell>
        <mxCell id="ysAVt2BfScrVBr1sPLy7-7" value="" style="edgeStyle=orthogonalEdgeStyle;rounded=0;orthogonalLoop=1;jettySize=auto;html=1;" edge="1" parent="1" source="ysAVt2BfScrVBr1sPLy7-5" target="ysAVt2BfScrVBr1sPLy7-6">
          <mxGeometry relative="1" as="geometry" />
        </mxCell>
        <mxCell id="ysAVt2BfScrVBr1sPLy7-21" value="&lt;div style=&quot;color: rgb(147, 157, 165); background-color: rgb(35, 42, 47); font-family: &amp;quot;JetBrains Mono&amp;quot;, Consolas, &amp;quot;Courier New&amp;quot;, monospace; font-size: 13px; line-height: 18px; white-space-collapse: preserve;&quot;&gt;&lt;span style=&quot;color: #ffea6b;&quot;&gt;search()&lt;/span&gt;&lt;/div&gt;" style="edgeLabel;html=1;align=center;verticalAlign=middle;resizable=0;points=[];" vertex="1" connectable="0" parent="ysAVt2BfScrVBr1sPLy7-7">
          <mxGeometry x="-0.0868" relative="1" as="geometry">
            <mxPoint x="2" y="13" as="offset" />
          </mxGeometry>
        </mxCell>
        <mxCell id="ysAVt2BfScrVBr1sPLy7-15" style="edgeStyle=orthogonalEdgeStyle;rounded=0;orthogonalLoop=1;jettySize=auto;html=1;entryX=0;entryY=0.5;entryDx=0;entryDy=0;dashed=1;" edge="1" parent="1" source="ysAVt2BfScrVBr1sPLy7-5" target="ysAVt2BfScrVBr1sPLy7-11">
          <mxGeometry relative="1" as="geometry" />
        </mxCell>
        <mxCell id="ysAVt2BfScrVBr1sPLy7-16" value="determines based on the context" style="edgeLabel;html=1;align=center;verticalAlign=middle;resizable=0;points=[];" vertex="1" connectable="0" parent="ysAVt2BfScrVBr1sPLy7-15">
          <mxGeometry x="0.1486" y="1" relative="1" as="geometry">
            <mxPoint x="13" y="16" as="offset" />
          </mxGeometry>
        </mxCell>
        <mxCell id="ysAVt2BfScrVBr1sPLy7-5" value="RechercherFactory" style="rounded=1;whiteSpace=wrap;html=1;" vertex="1" parent="1">
          <mxGeometry x="60" y="260" width="170" height="60" as="geometry" />
        </mxCell>
        <mxCell id="ysAVt2BfScrVBr1sPLy7-19" style="edgeStyle=orthogonalEdgeStyle;rounded=0;orthogonalLoop=1;jettySize=auto;html=1;" edge="1" parent="1" source="ysAVt2BfScrVBr1sPLy7-6">
          <mxGeometry relative="1" as="geometry">
            <mxPoint x="740" y="290" as="targetPoint" />
          </mxGeometry>
        </mxCell>
        <mxCell id="ysAVt2BfScrVBr1sPLy7-20" value="&lt;div style=&quot;color: rgb(147, 157, 165); background-color: rgb(35, 42, 47); font-family: &amp;quot;JetBrains Mono&amp;quot;, Consolas, &amp;quot;Courier New&amp;quot;, monospace; font-size: 13px; line-height: 18px; white-space-collapse: preserve;&quot;&gt;&lt;span style=&quot;color: #ffea6b;&quot;&gt;getRegleFromSqlQueryJoker()&lt;/span&gt;&lt;/div&gt;" style="edgeLabel;html=1;align=center;verticalAlign=middle;resizable=0;points=[];" vertex="1" connectable="0" parent="ysAVt2BfScrVBr1sPLy7-19">
          <mxGeometry x="-0.0057" y="2" relative="1" as="geometry">
            <mxPoint as="offset" />
          </mxGeometry>
        </mxCell>
        <mxCell id="ysAVt2BfScrVBr1sPLy7-6" value="RECHERCHE" style="rounded=1;whiteSpace=wrap;html=1;" vertex="1" parent="1">
          <mxGeometry x="310" y="260" width="170" height="60" as="geometry" />
        </mxCell>
        <mxCell id="ysAVt2BfScrVBr1sPLy7-10" value="Recherche.java implementations" style="swimlane;fontStyle=0;childLayout=stackLayout;horizontal=1;startSize=30;horizontalStack=0;resizeParent=1;resizeParentMax=0;resizeLast=0;collapsible=1;marginBottom=0;whiteSpace=wrap;html=1;" vertex="1" parent="1">
          <mxGeometry x="310" y="350" width="185" height="90" as="geometry">
            <mxRectangle x="325" y="330" width="210" height="30" as="alternateBounds" />
          </mxGeometry>
        </mxCell>
        <mxCell id="ysAVt2BfScrVBr1sPLy7-11" value="RechercherExpression...Strict" style="text;strokeColor=none;fillColor=none;align=left;verticalAlign=middle;spacingLeft=4;spacingRight=4;overflow=hidden;points=[[0,0.5],[1,0.5]];portConstraint=eastwest;rotatable=0;whiteSpace=wrap;html=1;" vertex="1" parent="ysAVt2BfScrVBr1sPLy7-10">
          <mxGeometry y="30" width="185" height="30" as="geometry" />
        </mxCell>
        <mxCell id="ysAVt2BfScrVBr1sPLy7-12" value="RechercherExpression...Joker" style="text;strokeColor=none;fillColor=none;align=left;verticalAlign=middle;spacingLeft=4;spacingRight=4;overflow=hidden;points=[[0,0.5],[1,0.5]];portConstraint=eastwest;rotatable=0;whiteSpace=wrap;html=1;" vertex="1" parent="ysAVt2BfScrVBr1sPLy7-10">
          <mxGeometry y="60" width="185" height="30" as="geometry" />
        </mxCell>
        <mxCell id="ysAVt2BfScrVBr1sPLy7-14" style="edgeStyle=orthogonalEdgeStyle;rounded=0;orthogonalLoop=1;jettySize=auto;html=1;entryX=0.551;entryY=0.992;entryDx=0;entryDy=0;entryPerimeter=0;" edge="1" parent="1" source="ysAVt2BfScrVBr1sPLy7-10" target="ysAVt2BfScrVBr1sPLy7-6">
          <mxGeometry relative="1" as="geometry" />
        </mxCell>
        <mxCell id="ysAVt2BfScrVBr1sPLy7-59" style="edgeStyle=orthogonalEdgeStyle;rounded=0;orthogonalLoop=1;jettySize=auto;html=1;" edge="1" parent="1" source="ysAVt2BfScrVBr1sPLy7-17" target="ysAVt2BfScrVBr1sPLy7-58">
          <mxGeometry relative="1" as="geometry" />
        </mxCell>
        <mxCell id="ysAVt2BfScrVBr1sPLy7-17" value="Regle&#39;s Usage" style="shape=datastore;whiteSpace=wrap;html=1;" vertex="1" parent="1">
          <mxGeometry x="1630" y="-90" width="90" height="100" as="geometry" />
        </mxCell>
        <mxCell id="ysAVt2BfScrVBr1sPLy7-26" style="edgeStyle=orthogonalEdgeStyle;rounded=0;orthogonalLoop=1;jettySize=auto;html=1;" edge="1" parent="1" source="ysAVt2BfScrVBr1sPLy7-24" target="ysAVt2BfScrVBr1sPLy7-25">
          <mxGeometry relative="1" as="geometry" />
        </mxCell>
        <mxCell id="ysAVt2BfScrVBr1sPLy7-27" value="&lt;div style=&quot;color: rgb(147, 157, 165); background-color: rgb(35, 42, 47); font-family: &amp;quot;JetBrains Mono&amp;quot;, Consolas, &amp;quot;Courier New&amp;quot;, monospace; font-size: 13px; line-height: 18px; white-space-collapse: preserve;&quot;&gt;&lt;span style=&quot;color: #ffea6b;&quot;&gt;rechercherExpression()&lt;/span&gt;&lt;/div&gt;" style="edgeLabel;html=1;align=center;verticalAlign=middle;resizable=0;points=[];" vertex="1" connectable="0" parent="ysAVt2BfScrVBr1sPLy7-26">
          <mxGeometry x="-0.1286" y="-3" relative="1" as="geometry">
            <mxPoint as="offset" />
          </mxGeometry>
        </mxCell>
        <mxCell id="ysAVt2BfScrVBr1sPLy7-24" value="List&amp;lt;Possible Solutions&amp;gt;&lt;br&gt;Map&amp;lt;RegleId, Text&amp;gt;" style="rhombus;whiteSpace=wrap;html=1;" vertex="1" parent="1">
          <mxGeometry x="740" y="192.5" width="180" height="195" as="geometry" />
        </mxCell>
        <mxCell id="ysAVt2BfScrVBr1sPLy7-35" style="edgeStyle=orthogonalEdgeStyle;rounded=0;orthogonalLoop=1;jettySize=auto;html=1;entryX=0.5;entryY=0;entryDx=0;entryDy=0;" edge="1" parent="1" source="ysAVt2BfScrVBr1sPLy7-25" target="ysAVt2BfScrVBr1sPLy7-34">
          <mxGeometry relative="1" as="geometry" />
        </mxCell>
        <mxCell id="ysAVt2BfScrVBr1sPLy7-25" value="Expression Matcher" style="rounded=1;whiteSpace=wrap;html=1;" vertex="1" parent="1">
          <mxGeometry x="1130" y="260" width="120" height="60" as="geometry" />
        </mxCell>
        <mxCell id="ysAVt2BfScrVBr1sPLy7-29" style="edgeStyle=orthogonalEdgeStyle;rounded=0;orthogonalLoop=1;jettySize=auto;html=1;" edge="1" parent="1" source="ysAVt2BfScrVBr1sPLy7-28">
          <mxGeometry relative="1" as="geometry">
            <mxPoint x="615" y="290" as="targetPoint" />
          </mxGeometry>
        </mxCell>
        <mxCell id="ysAVt2BfScrVBr1sPLy7-31" value="Gets all the blobs that contains all the words&lt;br&gt;thanks to DBMS" style="edgeLabel;html=1;align=center;verticalAlign=middle;resizable=0;points=[];" vertex="1" connectable="0" parent="ysAVt2BfScrVBr1sPLy7-29">
          <mxGeometry x="-0.1424" y="-1" relative="1" as="geometry">
            <mxPoint as="offset" />
          </mxGeometry>
        </mxCell>
        <mxCell id="ysAVt2BfScrVBr1sPLy7-28" value="SqlQueryStrict.java&lt;br&gt;SqlQueryJoker.java" style="rounded=1;whiteSpace=wrap;html=1;" vertex="1" parent="1">
          <mxGeometry x="555" y="90" width="120" height="60" as="geometry" />
        </mxCell>
        <mxCell id="ysAVt2BfScrVBr1sPLy7-33" style="edgeStyle=orthogonalEdgeStyle;rounded=0;orthogonalLoop=1;jettySize=auto;html=1;" edge="1" parent="1" source="ysAVt2BfScrVBr1sPLy7-32" target="ysAVt2BfScrVBr1sPLy7-25">
          <mxGeometry relative="1" as="geometry" />
        </mxCell>
        <mxCell id="ysAVt2BfScrVBr1sPLy7-32" value="Regex Generator" style="rounded=1;whiteSpace=wrap;html=1;" vertex="1" parent="1">
          <mxGeometry x="1130" y="140" width="120" height="60" as="geometry" />
        </mxCell>
        <mxCell id="ysAVt2BfScrVBr1sPLy7-40" style="edgeStyle=orthogonalEdgeStyle;rounded=0;orthogonalLoop=1;jettySize=auto;html=1;entryX=1;entryY=0.5;entryDx=0;entryDy=0;" edge="1" parent="1" source="ysAVt2BfScrVBr1sPLy7-34" target="ysAVt2BfScrVBr1sPLy7-39">
          <mxGeometry relative="1" as="geometry" />
        </mxCell>
        <mxCell id="ysAVt2BfScrVBr1sPLy7-44" style="edgeStyle=orthogonalEdgeStyle;rounded=0;orthogonalLoop=1;jettySize=auto;html=1;entryX=0;entryY=0.5;entryDx=0;entryDy=0;" edge="1" parent="1" source="ysAVt2BfScrVBr1sPLy7-34" target="ysAVt2BfScrVBr1sPLy7-43">
          <mxGeometry relative="1" as="geometry" />
        </mxCell>
        <mxCell id="ysAVt2BfScrVBr1sPLy7-48" value="&lt;div style=&quot;color: rgb(147, 157, 165); background-color: rgb(35, 42, 47); font-family: &amp;quot;JetBrains Mono&amp;quot;, Consolas, &amp;quot;Courier New&amp;quot;, monospace; font-size: 13px; line-height: 18px; white-space-collapse: preserve;&quot;&gt;&lt;span style=&quot;color: #ffea6b;&quot;&gt;runExtends()&lt;/span&gt;&lt;/div&gt;" style="edgeLabel;html=1;align=center;verticalAlign=middle;resizable=0;points=[];" vertex="1" connectable="0" parent="ysAVt2BfScrVBr1sPLy7-44">
          <mxGeometry x="0.0181" y="-2" relative="1" as="geometry">
            <mxPoint y="1" as="offset" />
          </mxGeometry>
        </mxCell>
        <mxCell id="ysAVt2BfScrVBr1sPLy7-34" value="List&amp;lt;Exact Solutions&amp;gt;&lt;br&gt;ResultatsRechercher.java&lt;br&gt;PairSolution.java" style="rhombus;whiteSpace=wrap;html=1;" vertex="1" parent="1">
          <mxGeometry x="1010" y="430" width="180" height="195" as="geometry" />
        </mxCell>
        <mxCell id="ysAVt2BfScrVBr1sPLy7-85" style="edgeStyle=orthogonalEdgeStyle;rounded=0;orthogonalLoop=1;jettySize=auto;html=1;entryX=0;entryY=0.5;entryDx=0;entryDy=0;" edge="1" parent="1" source="ysAVt2BfScrVBr1sPLy7-37" target="ysAVt2BfScrVBr1sPLy7-4">
          <mxGeometry relative="1" as="geometry" />
        </mxCell>
        <mxCell id="ysAVt2BfScrVBr1sPLy7-37" value="&lt;font color=&quot;#080808&quot;&gt;Début&lt;/font&gt;" style="ellipse;whiteSpace=wrap;html=1;aspect=fixed;fillColor=#cdeb8b;strokeColor=#36393d;" vertex="1" parent="1">
          <mxGeometry x="-414" y="250" width="80" height="80" as="geometry" />
        </mxCell>
        <mxCell id="ysAVt2BfScrVBr1sPLy7-39" value="FIN" style="ellipse;whiteSpace=wrap;html=1;fillColor=#a20025;fontColor=#ffffff;strokeColor=#6F0000;" vertex="1" parent="1">
          <mxGeometry x="860" y="487.5" width="80" height="80" as="geometry" />
        </mxCell>
        <mxCell id="ysAVt2BfScrVBr1sPLy7-41" value="" style="rounded=1;whiteSpace=wrap;html=1;fillColor=none;fontColor=#ffffff;strokeColor=#6F0000;strokeWidth=6;" vertex="1" parent="1">
          <mxGeometry x="1400" y="60" width="780" height="610" as="geometry" />
        </mxCell>
        <mxCell id="ysAVt2BfScrVBr1sPLy7-42" value="&lt;font style=&quot;font-size: 28px;&quot;&gt;DECODER&lt;/font&gt;" style="text;html=1;align=center;verticalAlign=middle;whiteSpace=wrap;rounded=0;" vertex="1" parent="1">
          <mxGeometry x="830" y="-50" width="330" height="30" as="geometry" />
        </mxCell>
        <mxCell id="ysAVt2BfScrVBr1sPLy7-47" style="edgeStyle=orthogonalEdgeStyle;rounded=0;orthogonalLoop=1;jettySize=auto;html=1;" edge="1" parent="1" source="ysAVt2BfScrVBr1sPLy7-43" target="ysAVt2BfScrVBr1sPLy7-46">
          <mxGeometry relative="1" as="geometry" />
        </mxCell>
        <mxCell id="ysAVt2BfScrVBr1sPLy7-43" value="SolutionProcessor" style="rounded=1;whiteSpace=wrap;html=1;" vertex="1" parent="1">
          <mxGeometry x="1490" y="300" width="120" height="60" as="geometry" />
        </mxCell>
        <mxCell id="ysAVt2BfScrVBr1sPLy7-75" style="edgeStyle=orthogonalEdgeStyle;rounded=0;orthogonalLoop=1;jettySize=auto;html=1;entryX=0.5;entryY=0;entryDx=0;entryDy=0;" edge="1" parent="1" source="ysAVt2BfScrVBr1sPLy7-46" target="ysAVt2BfScrVBr1sPLy7-49">
          <mxGeometry relative="1" as="geometry" />
        </mxCell>
        <mxCell id="ysAVt2BfScrVBr1sPLy7-76" value="&lt;div style=&quot;color: rgb(147, 157, 165); background-color: rgb(35, 42, 47); font-family: &amp;quot;JetBrains Mono&amp;quot;, Consolas, &amp;quot;Courier New&amp;quot;, monospace; font-size: 13px; line-height: 18px; white-space-collapse: preserve;&quot;&gt;&lt;span style=&quot;color: #ffea6b;&quot;&gt;decode()&lt;/span&gt;&lt;/div&gt;" style="edgeLabel;html=1;align=center;verticalAlign=middle;resizable=0;points=[];" vertex="1" connectable="0" parent="ysAVt2BfScrVBr1sPLy7-75">
          <mxGeometry x="-0.1619" y="2" relative="1" as="geometry">
            <mxPoint x="-59" y="2" as="offset" />
          </mxGeometry>
        </mxCell>
        <mxCell id="ysAVt2BfScrVBr1sPLy7-82" style="edgeStyle=orthogonalEdgeStyle;rounded=0;orthogonalLoop=1;jettySize=auto;html=1;entryX=0.5;entryY=0;entryDx=0;entryDy=0;" edge="1" parent="1" source="ysAVt2BfScrVBr1sPLy7-46" target="ysAVt2BfScrVBr1sPLy7-79">
          <mxGeometry relative="1" as="geometry" />
        </mxCell>
        <mxCell id="ysAVt2BfScrVBr1sPLy7-46" value="SolutionTool" style="rounded=1;whiteSpace=wrap;html=1;" vertex="1" parent="1">
          <mxGeometry x="1710" y="300" width="120" height="60" as="geometry" />
        </mxCell>
        <mxCell id="ysAVt2BfScrVBr1sPLy7-74" style="edgeStyle=orthogonalEdgeStyle;rounded=0;orthogonalLoop=1;jettySize=auto;html=1;" edge="1" parent="1" source="ysAVt2BfScrVBr1sPLy7-49" target="ysAVt2BfScrVBr1sPLy7-51">
          <mxGeometry relative="1" as="geometry" />
        </mxCell>
        <mxCell id="ysAVt2BfScrVBr1sPLy7-49" value="SolutionContainer" style="rhombus;whiteSpace=wrap;html=1;" vertex="1" parent="1">
          <mxGeometry x="1970" y="465" width="160" height="160" as="geometry" />
        </mxCell>
        <mxCell id="ysAVt2BfScrVBr1sPLy7-51" value="FIN" style="ellipse;whiteSpace=wrap;html=1;fillColor=#a20025;fontColor=#ffffff;strokeColor=#6F0000;" vertex="1" parent="1">
          <mxGeometry x="1750" y="505" width="80" height="80" as="geometry" />
        </mxCell>
        <mxCell id="ysAVt2BfScrVBr1sPLy7-83" style="edgeStyle=orthogonalEdgeStyle;rounded=0;orthogonalLoop=1;jettySize=auto;html=1;entryX=0.5;entryY=0;entryDx=0;entryDy=0;" edge="1" parent="1" source="ysAVt2BfScrVBr1sPLy7-53" target="ysAVt2BfScrVBr1sPLy7-28">
          <mxGeometry relative="1" as="geometry" />
        </mxCell>
        <mxCell id="ysAVt2BfScrVBr1sPLy7-53" value="Liste of all the Blobs" style="shape=datastore;whiteSpace=wrap;html=1;" vertex="1" parent="1">
          <mxGeometry x="570" y="-80" width="90" height="100" as="geometry" />
        </mxCell>
        <mxCell id="ysAVt2BfScrVBr1sPLy7-60" style="edgeStyle=orthogonalEdgeStyle;rounded=0;orthogonalLoop=1;jettySize=auto;html=1;entryX=0.5;entryY=0;entryDx=0;entryDy=0;" edge="1" parent="1" source="ysAVt2BfScrVBr1sPLy7-54" target="ysAVt2BfScrVBr1sPLy7-58">
          <mxGeometry relative="1" as="geometry" />
        </mxCell>
        <mxCell id="ysAVt2BfScrVBr1sPLy7-54" value="Rubriques details" style="shape=datastore;whiteSpace=wrap;html=1;" vertex="1" parent="1">
          <mxGeometry x="1745" y="-90" width="90" height="100" as="geometry" />
        </mxCell>
        <mxCell id="ysAVt2BfScrVBr1sPLy7-61" style="edgeStyle=orthogonalEdgeStyle;rounded=0;orthogonalLoop=1;jettySize=auto;html=1;entryX=0.5;entryY=0;entryDx=0;entryDy=0;" edge="1" parent="1" source="ysAVt2BfScrVBr1sPLy7-58" target="ysAVt2BfScrVBr1sPLy7-46">
          <mxGeometry relative="1" as="geometry" />
        </mxCell>
        <mxCell id="ysAVt2BfScrVBr1sPLy7-62" value="&lt;div style=&quot;color: rgb(147, 157, 165); background-color: rgb(35, 42, 47); font-family: &amp;quot;JetBrains Mono&amp;quot;, Consolas, &amp;quot;Courier New&amp;quot;, monospace; font-size: 13px; line-height: 18px; white-space-collapse: preserve;&quot;&gt;&lt;span style=&quot;color: #ffea6b;&quot;&gt;extend()&lt;/span&gt;&lt;/div&gt;" style="edgeLabel;html=1;align=center;verticalAlign=middle;resizable=0;points=[];" vertex="1" connectable="0" parent="ysAVt2BfScrVBr1sPLy7-61">
          <mxGeometry x="0.0696" y="-1" relative="1" as="geometry">
            <mxPoint as="offset" />
          </mxGeometry>
        </mxCell>
        <mxCell id="ysAVt2BfScrVBr1sPLy7-58" value="SqlQueryResultatsEtendus.java" style="rounded=1;whiteSpace=wrap;html=1;" vertex="1" parent="1">
          <mxGeometry x="1640" y="150" width="210" height="60" as="geometry" />
        </mxCell>
        <mxCell id="ysAVt2BfScrVBr1sPLy7-64" value="&lt;font style=&quot;font-size: 28px;&quot;&gt;SOLUTION EXTENDER&lt;/font&gt;" style="text;html=1;align=center;verticalAlign=middle;whiteSpace=wrap;rounded=0;" vertex="1" parent="1">
          <mxGeometry x="1490" y="625" width="330" height="30" as="geometry" />
        </mxCell>
        <mxCell id="ysAVt2BfScrVBr1sPLy7-71" style="edgeStyle=orthogonalEdgeStyle;rounded=0;orthogonalLoop=1;jettySize=auto;html=1;entryX=0.5;entryY=0;entryDx=0;entryDy=0;" edge="1" parent="1" source="ysAVt2BfScrVBr1sPLy7-65" target="ysAVt2BfScrVBr1sPLy7-68">
          <mxGeometry relative="1" as="geometry" />
        </mxCell>
        <mxCell id="ysAVt2BfScrVBr1sPLy7-65" value="Decoder" style="rounded=1;whiteSpace=wrap;html=1;" vertex="1" parent="1">
          <mxGeometry x="1080" y="-280" width="120" height="60" as="geometry" />
        </mxCell>
        <mxCell id="ysAVt2BfScrVBr1sPLy7-72" style="edgeStyle=orthogonalEdgeStyle;rounded=0;orthogonalLoop=1;jettySize=auto;html=1;entryX=1;entryY=0.5;entryDx=0;entryDy=0;" edge="1" parent="1" source="ysAVt2BfScrVBr1sPLy7-66" target="ysAVt2BfScrVBr1sPLy7-65">
          <mxGeometry relative="1" as="geometry" />
        </mxCell>
        <mxCell id="ysAVt2BfScrVBr1sPLy7-66" value="Bytes Converter&lt;div&gt;Converter.java&lt;/div&gt;" style="rounded=1;whiteSpace=wrap;html=1;" vertex="1" parent="1">
          <mxGeometry x="1280" y="-280" width="120" height="60" as="geometry" />
        </mxCell>
        <mxCell id="ysAVt2BfScrVBr1sPLy7-73" style="rounded=0;orthogonalLoop=1;jettySize=auto;html=1;entryX=1;entryY=0;entryDx=0;entryDy=0;" edge="1" parent="1" source="ysAVt2BfScrVBr1sPLy7-68" target="ysAVt2BfScrVBr1sPLy7-24">
          <mxGeometry relative="1" as="geometry">
            <Array as="points">
              <mxPoint x="1040" y="140" />
            </Array>
          </mxGeometry>
        </mxCell>
        <mxCell id="ysAVt2BfScrVBr1sPLy7-77" style="edgeStyle=orthogonalEdgeStyle;rounded=0;orthogonalLoop=1;jettySize=auto;html=1;" edge="1" parent="1" source="ysAVt2BfScrVBr1sPLy7-68">
          <mxGeometry relative="1" as="geometry">
            <mxPoint x="1970.0000000000005" y="330" as="targetPoint" />
          </mxGeometry>
        </mxCell>
        <mxCell id="ysAVt2BfScrVBr1sPLy7-78" value="Decode the neighbor texts" style="edgeLabel;html=1;align=center;verticalAlign=middle;resizable=0;points=[];" vertex="1" connectable="0" parent="ysAVt2BfScrVBr1sPLy7-77">
          <mxGeometry x="0.8828" y="-2" relative="1" as="geometry">
            <mxPoint as="offset" />
          </mxGeometry>
        </mxCell>
        <mxCell id="ysAVt2BfScrVBr1sPLy7-68" value="DecoderMultiple" style="rounded=1;whiteSpace=wrap;html=1;" vertex="1" parent="1">
          <mxGeometry x="1080" y="-150" width="120" height="60" as="geometry" />
        </mxCell>
        <mxCell id="ysAVt2BfScrVBr1sPLy7-70" style="edgeStyle=orthogonalEdgeStyle;rounded=0;orthogonalLoop=1;jettySize=auto;html=1;entryX=0;entryY=0.5;entryDx=0;entryDy=0;" edge="1" parent="1" source="ysAVt2BfScrVBr1sPLy7-69" target="ysAVt2BfScrVBr1sPLy7-68">
          <mxGeometry relative="1" as="geometry" />
        </mxCell>
        <mxCell id="ysAVt2BfScrVBr1sPLy7-69" value="Database Connections Pool" style="rounded=1;whiteSpace=wrap;html=1;" vertex="1" parent="1">
          <mxGeometry x="890" y="-150" width="120" height="60" as="geometry" />
        </mxCell>
        <mxCell id="ysAVt2BfScrVBr1sPLy7-79" value="SolutionTool Implemtation" style="swimlane;fontStyle=0;childLayout=stackLayout;horizontal=1;startSize=30;horizontalStack=0;resizeParent=1;resizeParentMax=0;resizeLast=0;collapsible=1;marginBottom=0;whiteSpace=wrap;html=1;" vertex="1" parent="1">
          <mxGeometry x="1690" y="400" width="185" height="60" as="geometry">
            <mxRectangle x="325" y="330" width="210" height="30" as="alternateBounds" />
          </mxGeometry>
        </mxCell>
        <mxCell id="ysAVt2BfScrVBr1sPLy7-80" value="Based on the environement" style="text;strokeColor=none;fillColor=none;align=left;verticalAlign=middle;spacingLeft=4;spacingRight=4;overflow=hidden;points=[[0,0.5],[1,0.5]];portConstraint=eastwest;rotatable=0;whiteSpace=wrap;html=1;" vertex="1" parent="ysAVt2BfScrVBr1sPLy7-79">
          <mxGeometry y="30" width="185" height="30" as="geometry" />
        </mxCell>
      </root>
    </mxGraphModel>
  </diagram>
</mxfile>
